<svg width="321" height="129" viewBox="0 0 321 129" fill="none" xmlns="http://www.w3.org/2000/svg">
<path d="M66.6547 2.70475C70.7119 1.81457 74.9087 1.76717 78.985 2.56551C87.7738 4.30845 93.1463 9.52324 95.0746 11.446C96.4669 12.8348 104.691 21.2951 104.991 34.1046C105.142 40.4619 103.238 45.2905 102.16 48.2084C100.387 53.009 97.9389 57.6674 94.2422 61.2089C85.5566 69.5294 80.4509 67.2751 73.7471 75.7754C70.4801 79.9184 68.7357 84.4836 67.2261 88.4342C65.7033 92.421 64.576 96.5477 63.8605 100.755C62.6379 100.508 61.3227 100.185 59.9374 99.7628C59.0098 99.4798 58.1343 99.1783 57.318 98.8683L32.8652 89.2836C34.1524 86.3787 35.8513 82.4461 37.758 77.7237C39.9617 72.2645 40.3669 70.8942 40.6629 69.5249C41.3816 66.2063 41.4252 63.0765 40.5477 56.3276C39.0707 44.9679 37.6969 44.2147 37.5727 39.1036C37.4034 32.1719 39.8195 26.3196 41.8839 22.3704C46.952 12.6756 54.8763 7.57445 58.7243 5.45037" stroke="#58CBFB" stroke-width="3.79071" stroke-miterlimit="10" stroke-linecap="round"/>
<path d="M71.639 77.5488C61.4218 73.5471 51.1128 69.7936 40.7119 66.2883" stroke="#58CBFB" stroke-width="3.79071" stroke-miterlimit="10" stroke-linecap="round"/>
<path d="M67.229 88.4342C57.6709 84.728 48.1844 80.8456 38.7695 76.7871" stroke="#58CBFB" stroke-width="3.79071" stroke-miterlimit="10" stroke-linecap="round"/>
<path d="M57.2966 99.3937C56.5044 101.609 55.3405 103.673 53.8548 105.497C49.4894 110.839 43.6421 112.421 41.4063 112.901C39.099 109.11 37.8917 104.751 37.9194 100.313C37.9561 97.685 38.437 95.082 39.3418 92.6143" stroke="#58CBFB" stroke-width="3.79071" stroke-miterlimit="10" stroke-linecap="round"/>
<path d="M64.0615 73.9163C67.6589 64.3478 71.5713 54.9058 75.7988 45.5901C77.746 41.2998 80.2187 36.6175 84.7027 35.1725C85.9739 34.7628 87.528 34.7152 88.4821 35.6503C89.8529 36.9936 88.9775 39.5379 87.2946 40.4584C85.6118 41.379 83.5523 41.1511 81.6631 40.814C76.3904 39.8737 71.2475 38.3131 66.3413 36.1647C63.6087 34.9677 60.8771 33.5287 58.9754 31.2304C57.7398 29.7373 57.0932 27.1425 58.74 26.1218C59.9506 25.3705 61.6489 26.1634 62.329 27.4155C63.0092 28.6676 62.9301 30.1841 62.7407 31.596C62.1668 35.8472 60.7494 39.932 59.34 43.9834L50.6123 69.0717" stroke="#58CBFB" stroke-width="3.79071" stroke-miterlimit="10" stroke-linecap="round"/>
<path d="M72.6912 77.9932L84.6208 89.9253C84.9837 90.2258 85.2528 90.6242 85.3961 91.0732C85.4738 91.529 85.3966 91.9977 85.1767 92.4045C84.776 93.2344 83.6912 99.8249 81.2416 118.565L63.8623 100.755" stroke="#58CBFB" stroke-width="3.79071" stroke-miterlimit="10" stroke-linecap="round"/>
<path d="M40.5504 66.1335L23.679 66.3704C23.2092 66.3329 22.7385 66.4307 22.3227 66.6524C21.9494 66.9251 21.678 67.315 21.5519 67.7598C21.2599 68.6387 17.1284 74.2658 5 89.6627C13.6696 89.3121 24.1953 88.933 32.8654 88.5809" stroke="#58CBFB" stroke-width="3.79071" stroke-miterlimit="10" stroke-linecap="round"/>
<path d="M68.094 110.975L63.626 122.002" stroke="#58CBFB" stroke-width="3.79071" stroke-miterlimit="10" stroke-linecap="round"/>
<path d="M60.7332 114.584L55.6611 127.102" stroke="#58CBFB" stroke-width="3.79071" stroke-miterlimit="10" stroke-linecap="round"/>
<path d="M29.1245 95.8796C27.4053 99.9308 25.5946 103.942 23.6924 107.913" stroke="#58CBFB" stroke-width="3.79071" stroke-miterlimit="10" stroke-linecap="round"/>
<path d="M20.401 99.6306L14.457 113.53" stroke="#58CBFB" stroke-width="3.79071" stroke-miterlimit="10" stroke-linecap="round"/>
<path d="M176.203 66.208C176.009 66.5725 175.723 66.8798 175.373 67.0994C175.023 67.319 174.622 67.4432 174.21 67.4597C172.819 67.4805 170.556 65.7156 170.161 65.4055C169.766 65.0953 166.363 61.5237 163.747 60.4445C162.339 59.8439 160.812 59.5728 159.283 59.6518C157.754 59.7309 156.264 60.158 154.925 60.9007C154.925 60.9007 148.829 63.9604 145.231 74.753C141.633 85.5456 141.577 94.2924 145.452 97.4481C149.327 100.604 153.867 98.1671 156.911 96.8918C159.956 95.6164 165.047 92.5803 166.763 92.4078C168.48 92.2354 169.587 92.686 168.978 95.6734C167.371 101.244 165.317 106.674 162.833 111.912C160.169 113.911 157.177 115.429 153.99 116.396C149.466 117.716 144.683 117.873 140.082 116.853C135.931 115.98 131.226 113.185 126.963 108.591C122.7 103.997 120.148 94.5664 121.261 83.3857C122.373 72.2051 128.954 59.7505 136.483 52.1664C144.011 44.5824 150.764 42.0373 157.406 41.7605C161.25 41.7754 165.039 42.6697 168.483 44.3751C171.927 46.0804 174.936 48.5515 177.278 51.599C177.488 51.9165 177.642 52.2674 177.734 52.6365C177.734 52.6365 178.196 63.6475 176.203 66.208Z" fill="#58CBFB"/>
<path d="M210.037 43.8145L191.4 117.454H179.818C179.818 117.454 174.462 117.662 173.003 115.752C171.544 113.843 171.84 112.099 172.712 107.947C173.584 103.795 185.872 54.8991 185.872 54.8991C185.872 54.8991 187.574 48.0842 189.193 46.3471C190.812 44.61 192.847 43.8145 196.541 43.8145H210.037Z" fill="#58CBFB"/>
<path d="M206.676 11.0059C206.676 11.0059 212.613 10.7569 215.686 14.0364C216.813 15.214 217.502 16.7428 217.638 18.3674C217.774 19.992 217.349 21.6141 216.433 22.9626C215.228 24.7887 212.032 29.854 202.152 29.854C192.272 29.854 192.146 23.4563 192.146 22.3812C192.261 20.0185 193.253 17.7834 194.928 16.1129C196.392 14.4526 198.204 13.1345 200.234 12.252C202.264 11.3694 204.463 10.944 206.676 11.0059Z" fill="#58CBFB"/>
<path d="M224.153 43.8159H214.729L210.744 59.8824H220.168L205.426 117.461H220.376C220.376 117.461 226.773 117.703 229.011 109.235C231.249 100.766 241.466 59.9227 241.466 59.9227H249.934C251.09 59.9488 252.238 59.7219 253.297 59.2579C253.987 58.893 254.578 58.366 255.019 57.7223C255.46 57.0787 255.738 56.3375 255.83 55.5626C256.535 52.781 257.947 47.343 257.947 47.343C258.072 46.9253 258.092 46.4831 258.005 46.0558C257.919 45.6284 257.727 45.2292 257.449 44.8938C256.568 44.1541 255.442 43.7693 254.293 43.8145H245.948L252.763 17.7022C253.177 16.3575 253.074 14.9063 252.472 13.6342C251.429 11.9318 249.56 11.1418 246.364 11.1418C243.169 11.359 240.036 12.1318 237.107 13.4255C234.801 14.3145 232.748 15.7541 231.126 17.6188L224.153 43.8159Z" fill="#58CBFB"/>
<path d="M239.222 96.0973V108.738C240.209 108.683 241.16 108.345 241.962 107.765C243.843 106.685 254.112 98.3893 255.579 97.6981C257.046 97.0069 260.672 94.986 263.771 98.2544C266.869 101.523 270.029 106.246 271.741 108.156C273.453 110.065 273.707 110.203 274.73 111.365C276.8 113.676 279.488 115.348 282.475 116.183C289.593 118.024 297.091 117.765 304.063 115.436C313.75 112.364 316.462 110.952 319.175 107.3C321.887 103.648 320.919 97.1223 320.393 96.2378C320.083 95.7268 319.867 95.1643 319.756 94.5772C318.723 94.656 317.717 94.9397 316.795 95.4116C315.3 96.1863 313.225 97.1279 311.425 98.0416C308.509 99.167 305.524 100.101 302.486 100.837C300.809 101.07 299.103 101.005 297.449 100.644C296.236 100.077 295.189 99.2098 294.404 98.1251C293.181 96.2617 292.081 94.3201 291.111 92.3129C290.03 90.1395 289.212 87.8447 288.676 85.4772C288.372 83.204 287.464 81.0538 286.047 79.2505C283.545 77.6789 280.833 76.4677 277.993 75.6525C275.732 74.8258 273.251 74.8258 270.99 75.6525C270.156 76.0698 267.808 77.0086 266.479 77.7832C265.149 78.5579 256.985 83.5954 252.252 86.7233C247.519 89.8512 243.119 92.8122 241.735 93.8915C240.791 94.4966 239.944 95.2402 239.222 96.0973Z" fill="#58CBFB"/>
<path d="M286.674 38.7516C286.674 38.7516 278.703 41.4915 274.51 44.7321C270.316 47.9726 270.026 48.1785 269.611 51.3328C269.197 54.4871 270.276 58.2242 274.179 59.3035C277.923 60.1113 281.793 60.1539 285.554 59.4286C289.511 58.5565 293.271 56.9528 296.639 54.6999C298.361 53.1078 299.769 51.2066 300.79 49.095C301.164 48.5554 301.6 46.8948 302.451 45.1716C303.475 43.5926 304.108 41.7923 304.298 39.9199C304.277 38.0103 303.881 35.8101 299.171 35.831C294.868 36.0722 290.639 37.0605 286.674 38.7516Z" fill="#58CBFB"/>
</svg>
